<svg xmlns="http://www.w3.org/2000/svg" xmlns:xlink="http://www.w3.org/1999/xlink" enable-background="new 0 0 6000 4000" viewBox="0 0 6000 4000"><path fill="#7db3db" d="M1207.4,3526.9c676.5,20.6,1353,16.5,2029.5,4.1c111.4,0,214.5-24.8,325.9-49.5c24.8-4.1,53.6,4.1,78.4-4.1
			c103.1-28.9,202.1-20.6,309.4-45.4c320.3-76.3,615.8-175,926.5-251.4c-944.7-169.5-2784.1-129.6-3229-46.9
			c-192.3,35.7-566.7,113.7-815.2,199.6c1.2,7.5,3.5,14.4,7.4,20.3C918.6,3477.4,1071.3,3522.7,1207.4,3526.9"/><path fill="#9bc6ee" d="M5183,3253.7c-85.3-27.8-188.7-52-305.9-73.1c-310.7,76.3-606.2,175.1-926.5,251.4
			c-107.3,24.8-206.3,16.5-309.4,45.4c-24.8,8.3-53.6,0-78.4,4.1c-111.4,24.8-214.5,49.5-325.9,49.5
			c-676.5,12.4-1353,16.5-2029.5-4.1c-136.1-4.1-288.8-49.5-367.1-173.3c-3.9-5.9-6.2-12.8-7.4-20.3
			c-397.7,137.6-473.4,295.8,1033.4,334.8C4307.3,3731.4,5955.7,3505.5,5183,3253.7"/><g opacity=".2"><defs><rect id="a" width="5090.4" height="915.8" x="436" y="2912.2"/></defs><clipPath id="b"><use overflow="visible" xlink:href="#a"/></clipPath><g clip-path="url(#b)"><defs><rect id="c" width="5090.4" height="915.8" x="436" y="2912.2"/></defs><clipPath id="d"><use overflow="visible" xlink:href="#c"/></clipPath></g></g><defs><path id="e" d="M5138.3,529.4c16.3,37.2,3.2,230.1-55.7,271.1c-58.9,41-80.6,100.8-65.7,143.3c14.9,42.5,30,55,30,55
				s-47.6-29.4-80.8,43.6c-33.2,73,85.4,84.7,35.1,171.5c-50.2,86.8-165.9,28.2-129.6,170.1c36.3,141.9,290.5,112.5,376.9-58.1
				c86.4-170.5,194.1-332,177.4-435.4c-9.2-56.9-35.1-49.9-60.6-42.9c-20.8,5.7-41.5,11.5-52.5-17.6
				c-24.6-64.7-17.4-323.3-113.2-379.4c-20.5-12-35.8-17-47-17C5111.5,433.5,5125.5,500.1,5138.3,529.4"/></defs><clipPath id="f"><use overflow="visible" xlink:href="#e"/></clipPath><linearGradient id="g" x1="1822.205" x2="1826.33" y1="2780.092" y2="2780.092" gradientTransform="scale(-216.0534 216.0534) rotate(24.688 7241.864 -2830.716)" gradientUnits="userSpaceOnUse"><stop offset="0" stop-color="#b6f2f0"/><stop offset=".304" stop-color="#b6f2f0"/><stop offset=".406" stop-color="#90dbd9"/><stop offset=".522" stop-color="#6dc6c4"/><stop offset=".639" stop-color="#52b5b4"/><stop offset=".757" stop-color="#3ea9a8"/><stop offset=".876" stop-color="#33a2a1"/><stop offset="1" stop-color="#2fa09f"/></linearGradient><polygon fill="url(#g)" points="5857.1 1335.2 4941.3 1756.3 4420.8 624.1 5336.7 203.1" clip-path="url(#f)"/><g opacity=".38"><defs><rect id="h" width="866.3" height="1340.7" x="4713.7" y="284.8"/></defs><clipPath id="i"><use overflow="visible" xlink:href="#h"/></clipPath><g clip-path="url(#i)"><defs><rect id="j" width="866.3" height="1340.7" x="4713.7" y="284.8"/></defs><clipPath id="k"><use overflow="visible" xlink:href="#j"/></clipPath></g></g><defs><path id="l" d="M5138.3,529.4c16.3,37.2,3.2,230.1-55.7,271.1c-58.9,41-80.6,100.8-65.7,143.3c14.9,42.5,30,55,30,55
				s-47.6-29.4-80.8,43.6c-33.2,73,85.4,84.7,35.1,171.5c-50.2,86.8-165.9,28.2-129.6,170.1c36.3,141.9,290.5,112.5,376.9-58.1
				c86.4-170.5,194.1-332,177.4-435.4c-9.2-56.9-35.1-49.9-60.6-42.9c-20.8,5.7-41.5,11.5-52.5-17.6
				c-24.6-64.7-17.4-323.3-113.2-379.4c-20.5-12-35.8-17-47-17C5111.5,433.5,5125.5,500.1,5138.3,529.4"/></defs><clipPath id="m"><use overflow="visible" xlink:href="#l"/></clipPath><path fill="#2d65af" d="M4998.3,1378.6c52.3-9.8,82.3-61.6,102.8-105.8c22.9-49.5,42.2-100.7,58.4-152.7
			c33.5-107.5,53.5-219.1,60.5-331.5c4-64.6,3.7-129.5-0.8-194.1c-0.2-3-5-3.1-4.8,0c7.9,112.1,3,225.1-15.1,336
			c-17.7,108-47.7,214.2-91.1,314.7c-21.7,50.3-50.6,117.6-111.2,128.9C4994,1374.6,4995.3,1379.2,4998.3,1378.6" clip-path="url(#m)"/><path fill="#2d65af" d="M5277.2 930.8c-14.2 20.4-27.5 41.4-39.8 63-6 10.6-11.6 21.4-17.4 32-1.8 3.3-3.7 6.3-7.5 7.3-3.3.9-7 1-10.3 1.4-6.6.8-13.1 1.6-19.7 2.5-3 .4-3 5.2 0 4.8 7.2-.9 14.4-1.8 21.6-2.7 4.9-.6 10.6-.5 14.6-3.7 4.3-3.3 6.4-9.1 8.8-13.7 3.3-6.3 6.7-12.5 10.1-18.7 13.4-23.9 27.9-47.2 43.6-69.7C5283.1 930.7 5278.9 928.3 5277.2 930.8M5155.5 1125.2c-2.3-11.5-8.5-22.1-12.7-33-4.5-11.5-8.4-23.2-11.7-35.1-6.9-24.3-11.4-49.2-13.6-74.3-.3-3-5-3.1-4.8 0 2.2 24.9 6.6 49.6 13.3 73.7 3.3 11.9 7.2 23.6 11.6 35.2 4.4 11.4 11 22.7 13.3 34.7C5151.5 1129.5 5156.1 1128.2 5155.5 1125.2M5231.6 1123.8c-19.3 14.3-37 30.5-53 48.4-4.1 4.6-8.1 9.4-12 14.2-3.5 4.4-7.1 9.1-12 12-8.7 5-19.1 4.3-27.1 11-2.4 2 1 5.3 3.4 3.4 7.8-6.5 19.1-5.4 27.4-11 9.1-6.1 15.3-16.7 22.5-24.8 16-18.1 33.8-34.6 53.3-49.1C5236.5 1126.2 5234.1 1122 5231.6 1123.8M5082.5 1263.6c-6.1-41.2-3.3-82.8-.4-124.2.2-3.1-4.6-3-4.8 0-2.9 41.8-5.6 83.8.5 125.4C5078.3 1267.9 5082.9 1266.6 5082.5 1263.6M5190.4 1303.3c-15 7.2-29.2 15.8-42.7 25.7-12.7 9.3-25.3 19.5-40.7 24-2.9.9-1.7 5.5 1.3 4.6 15.3-4.5 28-14.3 40.7-23.6 13.8-10.2 28.4-19.1 43.8-26.5C5195.6 1306.1 5193.1 1302 5190.4 1303.3M5197.1 858c-5.8-1.8-8.9-11.7-11.3-16.7-3-6.4-5.8-12.9-8.4-19.5-5-13.1-9.1-26.5-12.3-40.1-.7-3-5.3-1.7-4.6 1.3 3.6 15.5 8.4 30.6 14.3 45.3 2.8 6.9 5.9 13.8 9.2 20.5 2.7 5.4 5.4 11.9 11.7 13.8C5198.8 863.5 5200.1 858.9 5197.1 858" clip-path="url(#m)"/><path fill="#80dbda" d="M5013.3 337.1c-10.2-17.6-63.1-53.5-55-73.1 6.2-15.1 28.8-6.4 41.4-.6C5070.4 288.1 5051.1 398.3 5013.3 337.1M4953.7 520.4c-10.3-9-52.4-21.4-51.1-35 1-10.5 17.7-9.3 27.2-8C4981.4 479.5 4991 551.2 4953.7 520.4"/><defs><path id="n" d="M1675.8,1519.6c-44,73.8,57.5,246.4,64.9,299.4c7.5,53.1-81.4,6.9-54.1,83.3
				c27.3,76.3,50.9,225.4,173.1,308.8c122.2,83.4,415.2-71.5,386.8-181.3c-17.3-67-45.1-62.2-79.3-57.4c-21.8,3.1-46.2,6.1-72.1-9.5
				c-66.4-40.1,9.6-92.3-40.2-129.4c-49.8-37.1-71,0.6-71,0.6s5.6-14.1-0.2-48.4c-5.8-34.3-42.9-66.8-98-72.6
				c-55.2-5.8-53.5-145.1-68.3-172.8c-14.9-27.9-49.9-58.3-84.8-58.3C1712.2,1482,1692,1492.4,1675.8,1519.6"/></defs><clipPath id="o"><use overflow="visible" xlink:href="#n"/></clipPath><linearGradient id="p" x1="1825.875" x2="1830" y1="2778.378" y2="2778.378" gradientTransform="scale(269.7595 -269.7595) rotate(-46.534 -2321.068 3503.357)" gradientUnits="userSpaceOnUse"><stop offset="0" stop-color="#b6f2f0"/><stop offset=".13" stop-color="#b6f2f0"/><stop offset=".258" stop-color="#90dbd9"/><stop offset=".402" stop-color="#6dc6c4"/><stop offset=".548" stop-color="#52b5b4"/><stop offset=".696" stop-color="#3ea9a8"/><stop offset=".845" stop-color="#33a2a1"/><stop offset="1" stop-color="#2fa09f"/></linearGradient><polygon fill="url(#p)" points="1970.5 1160.9 2680.4 1910 1936.1 2615.5 1226.1 1866.5" clip-path="url(#o)"/><g opacity=".38"><defs><rect id="q" width="886.9" height="1051.9" x="1512.7" y="1332.3"/></defs><clipPath id="r"><use overflow="visible" xlink:href="#q"/></clipPath><g clip-path="url(#r)"><defs><rect id="s" width="886.9" height="1051.9" x="1512.7" y="1332.3"/></defs><clipPath id="t"><use overflow="visible" xlink:href="#s"/></clipPath></g></g><defs><path id="u" d="M1675.8,1519.6c-44,73.8,57.5,246.4,64.9,299.4c7.5,53.1-81.4,6.9-54.1,83.3
				c27.3,76.3,50.9,225.4,173.1,308.8c122.2,83.4,415.2-71.5,386.8-181.3c-17.3-67-45.1-62.2-79.3-57.4c-21.8,3.1-46.2,6.1-72.1-9.5
				c-66.4-40.1,9.6-92.3-40.2-129.4c-49.8-37.1-71,0.6-71,0.6s5.6-14.1-0.2-48.4c-5.8-34.3-42.9-66.8-98-72.6
				c-55.2-5.8-28.5-143.4-44.4-180c-8.1-18.5-56-49.4-100.9-49.4C1715.4,1483.7,1691.5,1493.2,1675.8,1519.6"/></defs><clipPath id="v"><use overflow="visible" xlink:href="#u"/></clipPath><path fill="#2d65af" d="M2157.7,2069.9c-45.9,14.9-90.8-20.4-124.7-46.8c-32.1-25-62.5-52-91.3-80.7
			c-58.8-58.6-110.7-124.2-154.7-194.6c-25.2-40.3-47.8-82.1-67.7-125.2c-1-2.2-4.2-0.3-3.2,1.9c36,77.9,80.8,151.7,133.5,219.4
			c51.6,66.3,110.8,126.8,176.8,178.8c35.7,28.2,83.3,66.7,132.2,50.8C2160.9,2072.8,2160,2069.2,2157.7,2069.9" clip-path="url(#v)"/><path fill="#2d65af" d="M1800.6 1877.3c18.9 9.3 37.3 19.6 55.2 30.7 4.4 2.7 8.7 5.5 13 8.4 3.6 2.3 7.3 5.6 11.5 6.6 4.1 1 8.1-1.3 11.8-2.8 5.1-2 10.3-4.1 15.4-6.1 2.2-.9 1.2-4.4-1-3.6-4.8 1.9-9.7 3.8-14.5 5.8-2.1.8-4.1 1.8-6.2 2.5-3.5 1.1-5.7.4-8.8-1.4-8.3-4.7-16.2-10.6-24.3-15.6-16.3-10-33.1-19.2-50.3-27.7C1800.3 1873 1798.4 1876.2 1800.6 1877.3M1961 1959.5c-2.8-9-2.6-19-3.9-28.4-1.4-9.8-3.2-19.5-5.5-29.1-4.4-18.6-10.6-36.6-18.3-54.1-1-2.2-4.1-.3-3.2 1.9 7.8 17.7 14 36.2 18.4 55.1 2.1 9 3.8 18.1 5.1 27.3 1.3 9.4 1.1 19.3 3.9 28.4C1958.2 1962.8 1961.7 1961.8 1961 1959.5M1904.9 1991.6c18.1 2.5 36 6.8 53.3 12.9 8 2.8 16.3 7.6 24.7 8.8 8.3 1.2 15.9-4.1 24.1-2.6 2.3.4 3.3-3.1 1-3.6-7.6-1.4-13.9 2.4-21.4 2.7-4.8.2-9.3-1.9-13.7-3.7-4.5-1.8-9.1-3.6-13.8-5.2-17.3-6.1-35.1-10.4-53.2-12.9C1903.5 1987.7 1902.5 1991.2 1904.9 1991.6M2062.2 2026.1c-11.4-30.5-28.9-58-46.5-85.2-1.3-2-4.5-.1-3.2 1.9 17.4 26.9 34.8 54.1 46.1 84.3C2059.5 2029.2 2063.1 2028.3 2062.2 2026.1M2000.3 2097.9c13-.7 26-.2 38.9 1.5 12.4 1.6 24.8 3.6 37.1.9 2.3-.5 1.3-4.1-1-3.6-12.5 2.7-25.1.3-37.6-1.2-12.4-1.6-24.9-2-37.4-1.3C1997.9 2094.3 1997.9 2098 2000.3 2097.9M1832.1 1797.5c3-3.2 2.9-7.6 2.8-11.7-.2-6.4-.7-12.7-1.5-19-1.5-12.3-3.9-24.5-7.3-36.4-.6-2.3-4.2-1.3-3.6 1 3 10.7 5.3 21.6 6.8 32.6.7 5.4 1.2 10.9 1.6 16.3.2 4.1 1.7 11.4-1.5 14.7C1827.9 1796.6 1830.5 1799.2 1832.1 1797.5" clip-path="url(#v)"/><g><path fill="#80dbda" d="M1661.9,1377.1c-10.3-13.1-19.7-62.2-38.4-63.2c-14.4-0.8-15.7,17.8-15.7,28.6
			C1601.5,1400.2,1697,1424.3,1661.9,1377.1"/><path fill="#152b3f" d="M4739.7,834.5c0,0,248.3,58,267.4,251.4c12.2,123.9-64.3,1439.4-115.3,1504.5
			c-51,65.1-184.2,113.1-323.4,104.8C4591.9,2563.4,4739.7,834.5,4739.7,834.5"/><g opacity=".7"><defs><rect id="w" width="2011" height="153.4" x="2395.3" y="3047.3"/></defs><clipPath id="x"><use overflow="visible" xlink:href="#w"/></clipPath><path fill="#051123" d="M2635,3089.3c0,0-344.2,0.6-207.6,53.2c136.7,52.6,1739.7,110.3,1961.5-26.6
					C4610.8,2979,2635,3089.3,2635,3089.3" clip-path="url(#x)"/></g><path fill="#4778b9" d="M4586.8,808.9l-2153.1,57.6c-284.5,11.6-357.6,171.6-357.6,319.2l90.4,1294c0,147.6,2676.2,147.6,2676.2,0
			l86.3-1382.5C4929,878.1,4734.4,808.9,4586.8,808.9"/><path fill="#dbeaf8" d="M4598.8,857.3L2455,900c-278.5,11.4-339.6,144.3-339.6,288.7l66.2,1282.2c0,144.4,2651.7,141.1,2651.7-3.3
			l46.8-1361C4880.1,892,4743.2,857.3,4598.8,857.3"/><polygon fill="#d6e7f7" points="4678.2 2412.2 2335 2436.9 2281.2 1220.8 4739.7 1141.8"/><path fill="#3b57b5" d="M4749.5,978.6c-27.6-19.1-2462.4,71.6-2475.2,86.4c-12.9,14.8-8.1,148.8,6.9,155.8
			c15,7,2450-67.3,2460.4-79.1C4752.1,1130.1,4777.2,997.8,4749.5,978.6"/><path fill="#ffc261" d="M2598.5,1337.8c-7.2,37.2-42.4,44-66.3,46.1c-23.8,2.1-44.3-24.2-44.4-44.7c0-20.5,26.5-70.3,65-58.4
			C2590.5,1292.4,2605.8,1300.6,2598.5,1337.8"/><path fill="#aaacbe" d="M2583.2 1460.9c2.7 16.5-9.8 22.9-22.9 23.2-13 .4-27.2-10.3-24.4-21.9 2.8-11.6 9.8-22.9 22.8-23.3C2571.9 1438.6 2580.6 1444.5 2583.2 1460.9M2585.9 1541c2.6 9.9-9.8 22.7-22.8 23.1-13 .3-21.1-5.6-24.3-21.8-3.2-16.2 12.8-19.9 22.8-23.1C2571.6 1515.9 2583.3 1531.1 2585.9 1541M2590.7 1686.7c.4 12.3-9.7 22.4-22.7 22.8-12.9.3-23.7-9.4-24.2-21.6-.4-12.3 9.7-22.5 22.7-22.8C2579.5 1664.7 2590.3 1674.4 2590.7 1686.7M2593.3 1763.9c.4 12.2-9.7 22.3-22.6 22.6-12.9.3-23.7-9.4-24.1-21.5-.4-12.2 9.7-22.3 22.6-22.6C2582.1 1742 2592.9 1751.6 2593.3 1763.9M2595.8 1840.6c.4 12.1-9.7 22.2-22.5 22.4-12.8.3-23.6-9.3-24-21.4-.4-12.1 9.7-22.2 22.5-22.5C2584.7 1818.8 2595.4 1828.4 2595.8 1840.6M2598.4 1916.8c.4 12.1-9.7 22-22.5 22.3-12.8.2-23.5-9.3-23.9-21.3-.4-12.1 9.6-22 22.5-22.3C2587.2 1895.2 2597.9 1904.8 2598.4 1916.8M2600.9 1992.7c.4 12-9.6 21.9-22.4 22.1-12.8.2-23.5-9.3-23.9-21.3-.4-12 9.6-21.9 22.4-22.1C2589.8 1971.1 2600.5 1980.7 2600.9 1992.7M2603.4 2068c.4 11.9-9.6 21.7-22.4 21.9-12.7.2-23.4-9.3-23.8-21.2-.4-11.9 9.6-21.8 22.3-22C2592.3 2046.6 2603 2056.1 2603.4 2068M2605.8 2143c.4 11.8-9.6 21.6-22.3 21.8-12.7.2-23.3-9.2-23.7-21.1-.4-11.8 9.6-21.6 22.3-21.8C2594.8 2121.7 2605.5 2131.1 2605.8 2143M2608.3 2217.5c.4 11.8-9.6 21.5-22.2 21.6-12.7.2-23.2-9.2-23.7-21-.4-11.8 9.5-21.5 22.2-21.7C2597.3 2196.3 2607.9 2205.7 2608.3 2217.5"/><polygon fill="#b4bded" points="2777.9 2215 2659 2216.7 2659.4 2229.2 2778.2 2227.6"/><polygon fill="#b4bded" points="2775.8 2138.1 2656.6 2140 2657 2152.5 2776.2 2150.7"/><polygon fill="#b4bded" points="2773.8 2060.7 2654.2 2062.7 2654.6 2075.4 2774.1 2073.3"/><polygon fill="#b4bded" points="2771.7 1982.8 2651.8 1985 2652.2 1997.7 2772 1995.5"/><path fill="#b4bded" d="M2769.6 1904.4c-5.8-5.4-120.3 2.4-120.3 2.4l.4 12.8c0 0 114.8-1 120.2-2.4C2775.4 1915.9 2775.5 1909.8 2769.6 1904.4M2767.5 1825.6c-7.4-5.2-120.6 2.6-120.6 2.6l.4 12.9c0 0 113.6-3.8 120.6-2.5C2774.8 1839.7 2775 1830.7 2767.5 1825.6M2765.4 1746.2c-7.3-4-113.6-1.7-121 2.7-7.3 4.5-5.3 11.9.4 13 5.7 1.1 116.3-2.4 120.9-2.7C2770.4 1758.9 2772.7 1750.2 2765.4 1746.2"/><path fill="#fff" d="M3672.6,1366.1c-31.5,8.9-806.4,38.7-824.8,23.8c-18.4-14.9-25.5-118.5-3.1-136.1
			c22.4-17.6,812.7-48.9,829.1-25.9C3690.1,1250.9,3704.2,1357.3,3672.6,1366.1"/><path fill="#b4bded" d="M2763.3 1666.4c-5.9-5.8-121.3 2.9-121.3 2.9s-6.3 5.4.4 13.1c6.7 7.6 127.5-6.1 121.3-2.9C2768 1677.6 2769.2 1672.2 2763.3 1666.4M2759.6 1526.3c0 0-113.4-1.7-122 3.2-8.6 5 .4 13.2.4 13.2s102.9 4.6 121.9-3.2C2779 1531.7 2759.6 1526.3 2759.6 1526.3M2757.6 1450.6c0 0-113 1.3-122.3 3.4-9.3 2.1.4 13.3.4 13.3s106.5 3.3 122.3-3.4C2773.7 1457.2 2757.6 1450.6 2757.6 1450.6M2800.6 1313.9c-11.8-7-152.9-1.5-169.6 5.1-16.7 6.7.6 18.5.6 18.5s157.5 1.7 169.5-5.1S2812.5 1320.9 2800.6 1313.9M3192.6 1300.4c-11.8-7-152.9-1.6-169.6 5.1-16.7 6.7.6 18.5.6 18.5s157.5 1.7 169.5-5.1C3205.1 1312.1 3204.5 1307.4 3192.6 1300.4"/><path fill="#fff" d="M3664.7,2320.2c-42.6,37.9-754.2,48.9-795.2,9.8c-41-39.1-46-869.2-20.5-891.3c25.5-22.1,804-62.4,823.2-23
			C3691.5,1455,3707.3,2282.3,3664.7,2320.2"/><path fill="#b4bded" d="M3601.7,1616.5c-12.1,5.8-702.1,21.4-713.9,17.5c-11.8-3.8-12.7-30-0.7-34.1c12-4.1,704.5-26.9,714.8-18
			C3612.2,1591,3613.8,1610.7,3601.7,1616.5"/><path fill="#fff" d="M3394.6,1158.1c-7,8.7-785.3,29.1-794.4,25.9c-9.1-3.3-8.5-56.6-2-60.7c6.5-4.1,788.4-32.8,796.2-26.8
			C3402.3,1102.5,3401.6,1149.5,3394.6,1158.1"/><path fill="#b5caf6" d="M2583.7,1183.5c-1.7,6.1-54,6.7-61.4,2c-7.4-4.7-5-53-2-57.4c2.9-4.4,53-16.3,61.6-2.1
			C2590.3,1140.3,2585.3,1177.4,2583.7,1183.5"/><path fill="#fff" d="M4408 1110.6c-5 4.4-125.4 10.2-135.8 4.5-10.4-5.8-3.1-21.9.7-23.9 3.8-2 132.1-7 135.9-4.5C4412.6 1089.1 4413 1106.1 4408 1110.6M4242.5 1116c-5.5.4-122.7 10.1-135 4.4-12.3-5.6-3.2-19.3.6-23.8 3.8-4.5 129-7.9 135.1-4.5C4249.3 1095.5 4248 1115.6 4242.5 1116M4522.2 1097.7c-6.1 18.6-13.7 28.5-33.2 29.1-19.4.6-35.5-14.8-33.9-31.9 1.6-17.1 21.6-39.9 37.6-34.5C4508.7 1065.9 4528.3 1079.2 4522.2 1097.7"/><path fill="#bbdef9" d="M4664.5,1220.2c-16.8-36-460-3.4-484.4,23.4c-24.4,26.8-67.4,1094.5-35.3,1140.8
			c32.1,46.3,409.4,47.3,453.7,0.7C4642.9,2338.6,4681.3,1256.2,4664.5,1220.2"/><path fill="#ffc261" d="M2982.3 1321.9c3.5 24.3-23.2 52.2-52.9 53-29.7.9-54.9-10.6-54.9-49.8 0-39.2 23-52.3 52.8-53.2C2957.1 1271 2978.8 1297.6 2982.3 1321.9M2985.8 1517.2c10.9 25.5-2.9 46.8-44.4 46.9-41.5 0-46.3-15.6-54.4-40.6-8.1-25 10.3-55.2 44.3-55.7C2965.2 1467.3 2974.8 1491.7 2985.8 1517.2"/><path fill="#b4bded" d="M3192.6 1487.5c-11.8-7-152.9-1.6-169.6 5.1-16.7 6.7.6 18.5.6 18.5s157.5 1.7 169.5-5.1C3205.1 1499.2 3204.5 1494.5 3192.6 1487.5M4607.2 1526c-11.8-7-152.9-1.6-169.6 5.1-16.7 6.7.6 18.5.6 18.5s157.5 1.7 169.5-5.1C4619.6 1537.7 4619 1533 4607.2 1526M4607.2 1638.1c-11.8-7-152.9-1.5-169.6 5.1-16.7 6.7.6 18.5.6 18.5s157.5 1.7 169.5-5.1C4619.6 1649.8 4619 1645.1 4607.2 1638.1M4607.2 1750.1c-11.8-7-152.9-1.6-169.6 5.1-16.7 6.7.6 18.5.6 18.5s157.5 1.7 169.5-5.1C4619.6 1761.8 4619 1757.1 4607.2 1750.1M4606.1 1866.6c-17.5-7.5-228.1-8.1-253.1-2.2-25 6 .3 18.5.3 18.5s234.9 8.5 253 2.2C4624.3 1878.9 4623.6 1874.1 4606.1 1866.6M4602.9 1978.6c-17.5-7.5-228.1-8.1-253.1-2.2-25 6 .3 18.5.3 18.5s234.9 8.5 253 2.2C4621.1 1990.9 4620.4 1986.1 4602.9 1978.6M4599.7 2090.6c-17.5-7.5-228.1-8.1-253.1-2.2-25 5.9.3 18.5.3 18.5s234.9 8.5 253 2.2C4617.9 2102.8 4617.1 2098.1 4599.7 2090.6"/><path fill="#a0d5f9" d="M4006.7,1497.6c-8.7,29.2-257.7,36.6-280.5,2.9c-36.4-53.9,1.9-249,2.8-268.9c0.9-19.9,253.3-70.4,282.8-4
			C4041.2,1294,4015.4,1468.4,4006.7,1497.6"/><path fill="#fff" d="M3964.6,1815.7c-28.7,14.3-241.7-0.1-241.7-0.1s-19.1-250.3,2.7-262.4c21.9-12.1,226.6-12,243.9-1
			C3986.8,1563.2,3993.3,1801.3,3964.6,1815.7"/><path fill="#2c64ad" d="M3785.3 1385.4c-2.5-1.5-4.5-3.7-5.9-6.6-1.4-2.9-2.2-6.3-2.2-10.3 0-6.8 1.5-13.2 4.4-19 2.9-5.8 7.2-10.5 13-14 5.7-3.5 12.6-5.3 20.6-5.3 2.1 0 4.3.2 6.6.5 2.4.3 4.5.8 6.4 1.4 1.3.4 1.9 1.3 1.9 2.7 0 1.2-.4 2.3-1.3 3.3-.9 1-1.9 1.6-3.1 1.6-.4 0-.6 0-.8-.1-2.3-.5-4.3-.9-6-1.2-1.7-.2-3.4-.4-5.3-.4-5.7 0-10.6 1.4-14.6 4.1-4 2.8-7 6.4-9 11-2 4.5-3 9.4-3 14.7 0 3.8.8 6.8 2.3 8.9 1.5 2.1 3.5 3.1 5.9 3.1 2.7 0 5.1-1.1 7.2-3.4 2.1-2.2 4-5.9 5.7-10.9 1.7-5 3.4-11.9 5.1-20.5.3-1.3.8-2.1 1.6-2.6.8-.4 1.9-.7 3.2-.7 3.2 0 4.8 1 4.8 3.1 0 .4-.1.8-.2 1.3-1.2 4.4-2.2 9.2-3.2 14.5-1 5.3-1.5 9.3-1.5 12 0 2.4.4 4.2 1.1 5.3.7 1.1 1.8 1.7 3.3 1.7 1.4 0 2.8-.5 4.1-1.4 1.3-1 2.9-2.6 4.9-5 .5-.6 1.2-.9 1.8-.9.6 0 1 .3 1.4.8.3.5.5 1.3.5 2.2 0 1.8-.4 3.1-1.3 4.2-2.2 2.7-4.4 4.7-6.5 6.1-2.1 1.4-4.7 2.1-7.8 2.1-3.1 0-5.7-.9-7.6-2.7-1.9-1.8-3.1-4.4-3.6-7.7-3.3 7-8.2 10.5-14.7 10.5C3790.6 1387.7 3787.8 1386.9 3785.3 1385.4M3845.2 1387c-1.8-.2-3-.7-3.7-1.4-.7-.7-1-1.9-.9-3.5.3-4.4 1.1-9.9 2.2-16.5 1.2-6.5 2.6-12.8 4.2-18.9.3-1.1.9-1.9 1.9-2.4.9-.4 2.2-.7 3.7-.7 2.7 0 4.1.8 4.1 2.3 0 .6-.1 1.3-.4 2.2-1.2 3.6-2.3 8.4-3.5 14.5-1.2 6-2 11.8-2.5 17.3 1.3.1 2.9.2 4.6.2 7.9 0 13.7-2.4 17.6-7.1 3.9-4.8 5.8-11.1 5.8-19.1 0-5.4-1.5-9.5-4.6-12.4-3.1-2.9-7.4-4.4-12.9-4.4-3.6 0-7.2.6-10.7 1.7-3.5 1.1-6.7 2.6-9.5 4.5-.6.4-1.2.6-1.9.6-.8 0-1.4-.3-1.8-1-.4-.7-.7-1.4-.7-2.4 0-1.1.2-2 .5-2.7.4-.7 1-1.3 1.8-1.9 3.1-2.1 6.7-3.7 10.9-4.8 4.2-1.1 8.2-1.7 12.1-1.7 5.5 0 10.2 1 14.2 2.9 4 1.9 7.1 4.7 9.2 8.4 2.2 3.7 3.2 8.1 3.2 13.4 0 6.8-1.3 12.7-4.1 17.8-2.7 5.1-6.6 9-11.8 11.8-5.2 2.8-11.3 4.2-18.5 4.2C3851.4 1387.7 3848.4 1387.4 3845.2 1387M3904 1384.5c-3.6-2.3-5.4-5.7-5.4-10.4 0-2.5.4-4.4 1.3-5.7.9-1.3 2.1-2 3.8-2 1.2 0 2.2.3 3 .9.8.6 1.1 1.4 1.1 2.4 0 .9-.1 1.7-.2 2.4 0 .2 0 .5-.1.9-.1.4-.1.9-.1 1.4 0 2 1 3.5 3.1 4.5 2 1 4.9 1.5 8.6 1.5 3.8 0 6.8-.7 9-2.1 2.2-1.4 3.2-3.3 3.2-5.8 0-1.5-.5-2.8-1.5-3.9-1-1.1-2.2-2-3.7-2.8-1.5-.7-3.6-1.7-6.3-2.7-3.5-1.3-6.3-2.6-8.5-3.8-2.2-1.2-4-2.9-5.6-5-1.6-2.1-2.3-4.7-2.3-7.8 0-3.2.9-6.1 2.6-8.6s4.2-4.5 7.5-5.9c3.3-1.4 7.1-2.1 11.5-2.1 3.3 0 6.3.5 9 1.5 2.7 1 4.9 2.4 6.6 4.4 1.6 2 2.5 4.4 2.5 7.3 0 2.8-.4 5-1.3 6.4-.8 1.4-2.1 2.2-3.8 2.2-1.2 0-2.1-.4-2.9-1.1-.8-.7-1.2-1.6-1.2-2.6 0-.9.1-1.6.2-2.4.1-1.3.2-2.2.2-2.6 0-1.9-.9-3.3-2.8-4.3-1.8-1-4.1-1.5-6.9-1.5-3.9 0-6.8.7-8.9 2.1-2.1 1.4-3.1 3.4-3.1 6 0 1.7.5 3.2 1.6 4.4 1.1 1.2 2.4 2.2 3.9 3 1.6.8 3.8 1.8 6.6 2.9 3.4 1.4 6.2 2.7 8.2 3.8 2.1 1.1 3.8 2.7 5.3 4.6 1.5 1.9 2.2 4.3 2.2 7.1 0 5.3-2 9.4-6 12.2-4 2.9-9.4 4.3-16.2 4.3C3912.4 1387.9 3907.6 1386.7 3904 1384.5"/><path fill="#fff" d="M3931.8,2119.9l-212.1,3.3c0,0-22-251.9,2.7-256.2c24.6-4.3,214.3-4.3,214.3-4.3L3931.8,2119.9z"/><path fill="#80dcdb" d="M4404.5,1356.9c1.1-1.8,2.3-3.7,3.9-5.1c1.7-1.3,4.1-2,6-1.1c1.1,0.5,2,1.5,2.8,2.4
			c10.7,12.2,33.2,31.2,29.7,38.5c-3.5,7.3-22.2-0.7-33.3-1.1c-6.5-0.2-26.4,2.1-30.4-2.6C4389.3,1377.2,4398,1367.6,4404.5,1356.9"/><path fill="#a3e7e6" d="M4432.4,1368.2c74.8-31,67.4,29.2,27.9,29.9C4420.8,1398.9,4432.4,1372.8,4432.4,1368.2"/><path fill="#2fa09f" d="M4411.2,1428.7c0.8,2.7,1.4,6.2-0.8,8c35.2-2.3,65,15.1,50.5-34.2
			C4442.6,1410.4,4395.6,1393.3,4411.2,1428.7"/><path fill="#80dcdb" d="M3816.3,1645.8c1.1-1.8,2.3-3.7,3.9-5.1c1.7-1.3,4.1-2,6-1.1c1.1,0.5,2,1.5,2.8,2.4
			c10.7,12.2,33.2,31.2,29.7,38.5c-3.5,7.3-22.2-0.7-33.3-1.1c-6.5-0.2-26.4,2.1-30.4-2.6
			C3801.2,1666.1,3809.8,1656.5,3816.3,1645.8"/><path fill="#a3e7e6" d="M3844.3,1657.2c74.8-31,67.4,29.2,27.9,29.9C3832.7,1687.9,3844.3,1661.8,3844.3,1657.2"/><path fill="#2fa09f" d="M3823.1,1717.6c0.8,2.7,1.4,6.2-0.8,8c35.2-2.3,65,15.1,50.5-34.2
			C3854.5,1699.4,3807.4,1682.2,3823.1,1717.6"/><path fill="#80dcdb" d="M3788,1955.8c1.1-1.8,2.2-3.7,3.9-5.1c1.7-1.3,4.1-2,6-1.1c1.1,0.5,2,1.5,2.8,2.4
			c10.7,12.2,33.2,31.2,29.7,38.5c-3.5,7.3-22.2-0.7-33.3-1.1c-6.5-0.2-26.4,2.1-30.4-2.6C3772.9,1976.1,3781.6,1966.5,3788,1955.8"/><path fill="#a3e7e6" d="M3816,1967.2c74.8-31,67.4,29.2,27.9,29.9C3804.4,1997.8,3816,1971.7,3816,1967.2"/><path fill="#2fa09f" d="M3794.8,2027.6c0.8,2.7,1.4,6.2-0.8,8c35.2-2.3,65,15.1,50.5-34.2
			C3826.2,2009.4,3779.1,1992.2,3794.8,2027.6"/><path fill="#2c63ad" d="M2166.5,2467.5v71.6c0,114.8,181.9,226.9,296.7,226.9l136.2-4.6c200.9-84.3,414-166.9,590.2-293.9H2166.5z"/><path fill="#3a75b5" d="M3189.6,2467.5c-176.2,127-389.3,209.6-590.2,293.9l160-5.4c193.4-61.8,350.4-169.8,514-288.6H3189.6z"/><path fill="#2c63ad" d="M3273.3,2467.5c-163.6,118.7-320.6,226.7-514,288.6l581.5-19.5c179.2-73.6,346.6-170.5,517.8-269.1H3273.3z"/><path fill="#3a75b5" d="M4411.9 2467.5h-553.2c-171.2 98.5-338.7 195.5-517.8 269.1l771.8-25.9c47.3-27.1 95-55.1 143.2-87.2C4323.9 2579.5 4360.9 2520 4411.9 2467.5M4730.3 2467.5c-53.7 85.1-118.6 162-192.2 229.2 115.9-2.2 304.6-45.7 304.6-157.6v-71.6H4730.3z"/><path fill="#2c63ad" d="M4730.3,2467.5h-318.4c-51.1,52.5-88.1,112-156.1,156c-48.2,32.1-95.8,60.1-143.2,87.2l416.5-14
			c2.9,0,5.9,0,9-0.1C4611.7,2629.5,4676.6,2552.6,4730.3,2467.5"/><path fill="#6298d1" d="M3154.4,3027.7c165,78.4,354.8,70.1,540.4,41.3c46.2-8.7,106.4-41.6,128.6-90.2
			c-206-3.3-469.2,1.9-668.4,11.4C3147.8,3007.3,3144.9,3023,3154.4,3027.7"/><path fill="#2c63ad" d="M4140.6,3002.8c-37.2-14.1-160.6-21.5-317.2-24c-22.2,48.7-82.4,81.6-128.6,90.2
			c-185.6,28.9-375.4,37.1-540.4-41.3c-9.5-4.7-6.7-20.4,0.6-37.6c-154.8,7.4-270.9,17.4-291.5,28.1c-67.1,34.9,5.1,124.3,5.1,124.3
			h1271.9C4140.6,3142.5,4264.7,3050,4140.6,3002.8"/><path fill="#172c51" d="M3562.8,2912.2c62.8-41.8,69.2-113.5,75.9-185.6l-365.6,12.3l17.4,220.4
			C3385.2,2968.8,3484.7,2962,3562.8,2912.2"/><path fill="#2f4b75" d="M3638.8,2726.6c-6.8,72.1-13.2,143.8-75.9,185.6c-78.1,49.7-177.7,56.6-272.3,47l3.4,43.5h421.3l11.8-279.2
			L3638.8,2726.6z"/><path fill="#fff" d="M3539.3,2584.8c0,27.7-26.3,50.1-58.7,50.1c-32.4,0-58.7-22.4-58.7-50.1c0-27.7,26.3-50.1,58.7-50.1
			C3513,2534.7,3539.3,2557.1,3539.3,2584.8"/><path fill="#c5dcef" d="M3612.9,2085.2c3.4-134-8.1-341.6-11.7-383.5c-5.4-61.4-663.1-15-677.8-10.6c-14.7,4.4-14.6,15.5-14.6,15.5
			s2,259.6,6.4,407c41.6-24.2,88.4-31,132-34.7C3235.2,2067.7,3430,2042.7,3612.9,2085.2"/><path fill="#a9c5d8" d="M3047.2,2079c-43.6,3.6-90.4,10.5-132,34.7c1.6,53.9,3.5,92.8,5.8,98.6c8.5,21.6,642.4,7.8,675.1-11.8
			c10.4-6.2,15.2-52.7,16.8-115.2C3430,2042.7,3235.1,2067.7,3047.2,2079"/><path fill="#e65e75" d="M3397.2 1750.6c-2.9-1-5.5-2-7.8-3-2.4-1-4.4-2.2-6.1-3.7-1.7-1.4-3-3.2-4-5.2-.9-2-1.4-4.4-1.4-7.3 0-5.6 2.1-10 6.4-13.3 4.3-3.3 10.3-5 18-5 2.8 0 5.4.2 7.8.6 2.4.4 4.5 1 6.2 1.8 1.7.8 3.1 1.9 4.1 3.1 1 1.3 1.5 2.8 1.5 4.5 0 1.7-.4 3.2-1.2 4.4-.8 1.2-1.7 2.2-2.8 3.1-1.4-.9-3.4-1.7-5.8-2.4-2.4-.7-5.1-1-7.9-1-2.9 0-5.1.4-6.5 1.2-1.4.8-2.1 1.8-2.1 3.1 0 1 .4 1.8 1.3 2.4.9.6 2.1 1.2 3.8 1.7l5.2 1.7c6.1 2 10.9 4.5 14.2 7.5 3.3 3 5 7.2 5 12.4 0 5.6-2.2 10.1-6.6 13.5-4.4 3.4-10.8 5.1-19.3 5.1-3 0-5.8-.2-8.4-.7-2.6-.5-4.8-1.2-6.8-2.2-1.9-.9-3.4-2.1-4.5-3.5-1.1-1.4-1.6-3-1.6-4.9 0-1.9.6-3.5 1.7-4.9 1.1-1.3 2.3-2.4 3.6-3.1 1.8 1.4 4.1 2.7 6.7 3.7 2.6 1 5.5 1.6 8.7 1.6 3.2 0 5.5-.5 6.8-1.5 1.3-1 2-2.1 2-3.4 0-1.3-.5-2.3-1.6-3-1-.7-2.5-1.4-4.4-2L3397.2 1750.6zM3453.7 1725.1c3.5 0 6.7.4 9.7 1.1 2.9.7 5.4 1.8 7.5 3.3 2.1 1.5 3.6 3.3 4.8 5.6 1.1 2.3 1.7 4.9 1.7 8v22c0 1.7-.5 3.1-1.4 4.2-1 1.1-2.1 2-3.4 2.8-4.3 2.6-10.2 3.8-18 3.8-3.5 0-6.6-.3-9.4-1-2.8-.7-5.2-1.6-7.2-2.9-2-1.3-3.5-3-4.6-5-1.1-2-1.6-4.4-1.6-7.1 0-4.5 1.3-8 4-10.4 2.7-2.4 6.8-3.9 12.5-4.5l12.9-1.4v-.7c0-1.9-.8-3.3-2.5-4.1-1.7-.8-4.1-1.2-7.2-1.2-2.5 0-4.9.3-7.3.8-2.4.5-4.5 1.2-6.4 2-.9-.6-1.6-1.5-2.2-2.7-.6-1.2-.9-2.5-.9-3.8 0-1.7.4-3.1 1.2-4.1.8-1 2.1-1.9 3.8-2.6 1.9-.7 4.1-1.2 6.7-1.6C3449 1725.3 3451.4 1725.1 3453.7 1725.1M3454.5 1763.7c1.1 0 2.3-.1 3.7-.3 1.3-.2 2.3-.5 3-.9v-7.8l-7.1.6c-1.8.1-3.3.5-4.5 1.2-1.2.7-1.8 1.6-1.8 2.9 0 1.3.5 2.4 1.5 3.2C3450.4 1763.3 3452.1 1763.7 3454.5 1763.7M3504.4 1774.2c-.7.1-1.8.3-3.2.5-1.4.2-2.8.3-4.3.3-1.4 0-2.7-.1-3.9-.3-1.1-.2-2.1-.6-2.9-1.2-.8-.6-1.4-1.4-1.8-2.4-.4-1-.6-2.3-.6-4v-56.9c.7-.1 1.8-.3 3.2-.5 1.4-.2 2.8-.3 4.3-.3 1.4 0 2.7.1 3.9.3 1.1.2 2.1.6 2.9 1.2.8.6 1.4 1.4 1.8 2.4.4 1 .6 2.3.6 4V1774.2zM3540.2 1775.8c-3.9 0-7.4-.5-10.7-1.6-3.3-1.1-6.2-2.7-8.6-4.9-2.5-2.2-4.4-4.9-5.8-8.1-1.4-3.3-2.1-7.1-2.1-11.5 0-4.3.7-8 2.1-11.1 1.4-3.1 3.3-5.7 5.5-7.7 2.3-2 4.9-3.5 7.9-4.4 2.9-1 6-1.4 9-1.4 3.5 0 6.6.5 9.5 1.6 2.8 1 5.3 2.5 7.4 4.3 2.1 1.8 3.7 4 4.8 6.6 1.1 2.5 1.7 5.3 1.7 8.3 0 2.2-.6 3.9-1.9 5.1-1.2 1.2-3 1.9-5.2 2.3l-24.2 3.6c.7 2.2 2.2 3.8 4.4 4.9 2.2 1.1 4.8 1.6 7.6 1.6 2.7 0 5.2-.3 7.6-1 2.4-.7 4.3-1.5 5.8-2.4 1 .7 1.9 1.6 2.6 2.7.7 1.2 1.1 2.4 1.1 3.7 0 2.9-1.4 5.1-4.1 6.6-2.1 1.1-4.4 1.9-7.1 2.3C3544.9 1775.6 3542.5 1775.8 3540.2 1775.8M3537.4 1737.3c-1.6 0-2.9.3-4.1.8-1.1.5-2.1 1.2-2.8 2-.7.8-1.3 1.7-1.6 2.7-.4 1-.6 2-.6 3.1l16.8-2.8c-.2-1.3-.9-2.6-2.2-3.9C3541.7 1737.9 3539.8 1737.3 3537.4 1737.3"/><g opacity=".5"><defs><rect id="y" width="1022.8" height="1097.1" x="2152.3" y="888.8"/></defs><clipPath id="z"><use overflow="visible" xlink:href="#y"/></clipPath><polygon fill="#f2f2f2" points="2152.3 1863 3015.8 888.8 3175.1 888.8 2152.3 1985.9" clip-path="url(#z)"/></g><g opacity=".5"><defs><rect id="A" width="1909.5" height="1350.1" x="2165.7" y="864.9"/></defs><clipPath id="B"><use overflow="visible" xlink:href="#A"/></clipPath><polygon fill="#f2f2f2" points="2165.7 2121.9 3285.8 883.4 4075.2 865 2168.4 2215" clip-path="url(#B)"/></g><path fill="#76a9d3" d="M3064.9,2133.4c0,0,66.3-116.7,424.1-49c46.1,11.8,80.5,23.2,59.9,27c-20.6,3.8-128.6,55.6-298.8,42.7
			C3146.1,2156,3022.6,2149.3,3064.9,2133.4"/><path fill="#3172a8" d="M3232.2,1830.6c0,0-12.7-129,37.9-111.6c50.6,17.4,50.6,115.9,45.2,124.3c-13-3.5-16.8-5-16.8-5
			s11.8-69.5-21.5-90.1c-33.2-20.6-32.5,46.4-31.9,65.2l-0.3,18.7L3232.2,1830.6z"/><path fill="#e9e5fc" d="M3282.4,1881.6c-52.9,2.2-109.6-0.6-160.1-17.6c-22.9,64.4-85.1,250.1-52.1,276.9
			c23.1,18.7,127.8,15,212,5.5C3296.3,2057.3,3307.5,1971.1,3282.4,1881.6"/><path fill="#c3bee0" d="M3394.4,2122.8c0.3-15.7-50.6-234.6-58-265.2c-7.4-30.6-203.8-34.3-206.1-15.5c0,0-3.1,8.2-7.9,21.9
			c50.5,17,107.1,19.8,160.1,17.6c25.1,89.5,13.9,175.8-0.2,264.8C3343.7,2139.4,3394.3,2129.4,3394.4,2122.8"/><path fill="#102538" d="M3140.5,1843.2c0,0,121.1,11.6,147.9,25.4c26.8,13.9,8.3-14.8,20.8-12.2c12.5,2.5,22.2,9.1,18.5,1.4
			c-3.7-7.7-139.1-25.7-149.7-22c-10.6,3.7-20.3,5.5-27.3,3.7C3143.7,1837.6,3128.5,1837.2,3140.5,1843.2"/><path fill="#4778b9" d="M3328.4 1865.4c0 0 63.7 252.3 53.3 253-10.4.7-29.1-20.1-29.1-52.7C3352.6 2033.1 3316.1 1854.9 3328.4 1865.4M3301.9 1882.7c0 0 18.8 230.1 10.5 241.9-8.3 11.8 20.8 11.8 27.7 0 6.9-11.8 9-25 7.6-45.7-1.4-20.8-20.1-194.8-27-196.2C3313.8 1881.3 3300.8 1868.9 3301.9 1882.7"/><path fill="#75afe8" d="M3165.4,1887.5c0,0-22.2-165,29.8-168.4c52-3.5,89.4,101.9,74.8,168.4c-7.6,24.3-11.8,9.7-16.6,0
			c-4.9-9.7,18.7-79-17.3-125.5c-36-46.4-58.9-14.6-58.9,9.7s13.2,116.4,9.7,122.7C3183.4,1900.7,3167.1,1902.1,3165.4,1887.5"/><path fill="#ff8333" d="M2999.5,2072.7c0,0-35.1-4.7-33.1,23c2,27.7,33.1,21,33.1,21s22.3,0,22.3,16.2c0,16.2-35.8,18.6-46.6,10.3
			c-2-6.2,14.4-8.1,18.9-5.4c4.4,2.7,29.4-6.8,11.5-12.5c-17.9-5.7-30.9,0.5-39.3-11.2c-8.4-11.7-11.2-44.1,12.3-46.5
			C3002.1,2065.2,3009.2,2068.3,2999.5,2072.7"/><path fill="#ff8333" d="M2984.4,2054.8c1.5,15.8,3,133.6,9.9,133.1c6.8-0.5,0.3-133.3-3.3-137.1
			C2987.4,2046.9,2983.9,2049.7,2984.4,2054.8"/></g><g><defs><path id="C" d="M2524.6,1919c0,0,104.7,174.1,203.2,169.7c98.5-4.4,130.1-134.1,132.7-155.6
				c25.5-0.8,61.3-19.8,27.9-52.5c0-9.2,14.7-6.2,27.3-3.1c9.5,2.3,17.8,4.6,17.8,1.7c0-6.9-39.6-30.5-62.2-20.3
				c-27,12.1-38.9,31.4-40.5,47c-2,20.6-114.4,216-187.5-44.1l-26.5-57.3C2616.8,1804.5,2509.6,1889.8,2524.6,1919"/></defs><clipPath id="D"><use overflow="visible" xlink:href="#C"/></clipPath><linearGradient id="E" x1="1831.485" x2="1835.61" y1="2778.768" y2="2778.768" gradientTransform="scale(-184.4659 184.4659) rotate(42.436 4474.28 -985.409)" gradientUnits="userSpaceOnUse"><stop offset="0" stop-color="#ffc7d0"/><stop offset="1" stop-color="#e65e75"/></linearGradient><polygon fill="url(#E)" points="3091.5 1977.4 2702.6 2333 2351.5 1949 2740.5 1593.4" clip-path="url(#D)"/></g><g><g opacity=".9"><defs><rect id="F" width="1169.6" height="168" x="3426.9" y="3383.9"/></defs><clipPath id="G"><use overflow="visible" xlink:href="#F"/></clipPath><path fill="#3d5f93" d="M4596.5,3453.2c-6.8,95.7-392.3,94.6-506.8,98.5s-667.2-54.1-662.8-117.7
					C3431.4,3370.4,4603.3,3357.6,4596.5,3453.2" clip-path="url(#G)"/></g><path fill="#1b2c49" d="M3740.7,3368.1c-1.9-26.6,22.9-43.6,51-50.6c37.5-9.4,101.8,29.6,101.8,29.6c22.2-1.9,24.4-34.1,24.4-34.1
			l49.8,8.9c0,0,7,74.5-8.6,109.4C3881.7,3440.6,3794.5,3422.1,3740.7,3368.1"/><path fill="#aecff1" d="M3959.2,3431.4c-4.8,10.8-11.8,17.8-21.8,17.7c-42.3-0.5-154.8-6.7-184.9-50.9
			c-7.6-11.1-11.2-21.1-11.9-30.1C3794.5,3422.1,3881.7,3440.6,3959.2,3431.4"/><path fill="#e65e75" d="M3861.8,3311.4c0,0,8.2,53.7,1.8,40.6c-6.4-13.1-14.8-46.4-25.5-47.5c-10.7-1.2-6.3,36.8-17.6,33.5
			c-11.3-3.3,2-41.3-8.4-41.9c-10.4-0.7-14.6,33.6-21.2,32.7c6.6,1.9,15.4-18.6,17.7-26.2c2.2-7.6,6.4-1.4,5.3,3.7
			c-1.1,5.1-7.1,34.2,6.5,34.6c13.5,0.4,15.1-24.4,15.6-26.6c0.5-2.2,5-6.3,7.6-1c2.7,5.3,15.1,46.3,22.3,45.7
			C3873.1,3358.4,3868.5,3321.7,3861.8,3311.4"/><path fill="#172c51" d="M4012.9,2423.5c16.3-98,72.7-177.8,91.2-271.9c-69.2-13.6-119.3,13.4-121.9,51c0,0-74.2,134.7-86.9,334.1
			c-20.2,317.6,13,737.9,23,789.8c49.1,31.4,48.8,11.3,48.8,11.3s74.6-79.8,89.8-263c-23.2-44.3-44.2-89.6-57.7-138.6
			C3948.8,2766.9,3980.8,2597.5,4012.9,2423.5"/><g opacity=".15"><defs><rect id="H" width="515.6" height="1497.4" x="3740.2" y="1996.5"/></defs><clipPath id="I"><use overflow="visible" xlink:href="#H"/></clipPath><g clip-path="url(#I)"><defs><rect id="J" width="515.6" height="1497.4" x="3740.2" y="1996.5"/></defs><clipPath id="K"><use overflow="visible" xlink:href="#J"/></clipPath></g></g><path fill="#051123" d="M4055.9,2926.5c-2.5-27.8-6.2-57.1-11.4-87.9c5.5-11.4,11.8-25.1,18.6-40.7
			c71.9-164.8,206.4-541.7,190.9-602.6c-11.2-4.1-22.8-8.2-34.6-12.2c-17-5.7-34.5-11.1-51.8-16.1c-21.6-6.1-43.1-11.4-63.4-15.4
			c-18.5,94.1-74.9,173.9-91.2,271.9c-32.1,174-64.1,343.4-13.7,512.9c13.5,49,34.5,94.3,57.7,138.6
			C4060.5,3031.4,4060.8,2982.1,4055.9,2926.5"/><path fill="#aecff1" d="M4430.2,3363.9c8.1,17.1,10.5,32.8-0.4,41.4c-33.1,26.4-124.1,92.7-175.4,77.4
			c-17.5-5.2-28.2-13.4-33.7-23.2C4303.8,3459.1,4383.3,3437.4,4430.2,3363.9"/><path fill="#1b2c49" d="M4233.7,3395.4c23.1-31,97.6-41.4,97.6-41.4c16-15.6-2.6-41.8-2.6-41.8l44.2-24.6c0,0,40.6,41.2,57.2,76.3
			c-46.9,73.5-126.4,95.2-209.5,95.6C4210.1,3440.6,4218.5,3415.9,4233.7,3395.4"/><path fill="#051123" d="M4251,2519.7c-18.3,105.3-77.8,219.8-36.6,311.4c47.8,102.1,66.8,244.1,135.8,337.9
			c-37.7-130.7-94.4-322.9-109.9-349.7c30.8-152.7,114.4-556.7,37-617.6c-7.4-1-14.5-2.1-21.4-3.3
			C4258.2,2304,4272.1,2409.9,4251,2519.7"/><path fill="#172c51" d="M4214.4,2831c-41.2-91.6,18.3-206.1,36.6-311.4c21.1-109.8,7.2-215.7,4.9-321.2
			c-129.4-22.6-165.5-84.5-180.8-33.1c0,0-71.5,627.6,13.8,765.5c85.2,138,228.9,388.1,228.9,388.1l67.3-27.5
			c0,0-14.7-52.4-34.9-122.4C4281.2,3075.2,4262.2,2933.1,4214.4,2831"/><g opacity=".15"><defs><rect id="L" width="639.4" height="1472.7" x="3897" y="1996.5"/></defs><clipPath id="M"><use overflow="visible" xlink:href="#L"/></clipPath><g clip-path="url(#M)"><defs><rect id="N" width="639.4" height="1472.7" x="3897" y="1996.5"/></defs><clipPath id="O"><use overflow="visible" xlink:href="#N"/></clipPath></g></g><path fill="#e65e75" d="M4303.7,3338.4c0,0,38.7,38.2,25.7,31.5c-13-6.7-39.6-28.3-48.9-22.8c-9.3,5.5,16.9,33.3,5.9,37.4
			c-11,4.2-23.1-34.2-31.8-28.6c-8.7,5.7,8.4,35.7,2.6,38.9c6.5-2.4,1.2-24.2-1.5-31.6c-2.7-7.4,4.3-4.9,6.4-0.2
			c2.2,4.8,14.8,31.6,25.9,23.9c11.1-7.7-2.5-28.6-3.4-30.7c-0.9-2.1,0.2-8,5.5-5.4c5.3,2.7,39.8,28,45.2,23.2
			C4340.9,3369.3,4315.2,3342.7,4303.7,3338.4"/><path fill="#ffa730" d="M4116.6,1878.5c-1.4-21,0.3-78.4-54.7-76.7c-55,1.8-58.9,3-59.1,16.8c-0.2,13.8-19.1,33.1-89.3,69
			c-92,47.1-313-8.4-313-8.4s-5.2,38.8,10.7,41.3c15.9,2.5,217.1,102,321.1,57.8C4036.3,1934.2,4118.1,1899.5,4116.6,1878.5"/><path fill="#ff7116" d="M4085.3,1736.9c-1.8-0.6-3.6-0.7-5.3-0.4c-30.2,0-56.4,15.2-60.8,21c-4.4,5.8-30.6,15.4-35.4,117.4
			c-2.1,119.3-131.7,371.3-54.4,413.2c24.3,13.2,90.7,29.7,130,17.7c39.3-12,171.4,10.7,238.3-34.8c-7.8-35.3-21.6-70.2-42.4-103.9
			C4171.8,2030.6,4117.9,1889.9,4085.3,1736.9"/><g opacity=".15"><defs><rect id="P" width="738.4" height="915.8" x="3732" y="1563.3"/></defs><clipPath id="Q"><use overflow="visible" xlink:href="#P"/></clipPath><g clip-path="url(#Q)"><defs><rect id="R" width="738.4" height="915.8" x="3732" y="1563.3"/></defs><clipPath id="S"><use overflow="visible" xlink:href="#R"/></clipPath></g></g><path fill="#e24b00" d="M4285.6,2183.1c0,0-142.4-428.2-200.3-446.2c32.5,153,86.5,293.7,170.1,430.1
			c20.8,33.8,34.5,68.6,42.4,103.9c3.8-2.6,7.6-5.3,11.2-8.3C4338.5,2238.5,4285.6,2183.1,4285.6,2183.1"/></g><g><defs><path id="T" d="M3976.5,1698.6c0,0,43.8,70.5,47.4,93.3c38.1-3.4,51.9-25.9,49.5-33.9c-46.6-54.3-63.4-80.3-66.1-91.3
				c-0.4-1.8-1.6-2.5-3.1-2.5C3995.8,1664.1,3974.7,1685.7,3976.5,1698.6"/></defs><clipPath id="U"><use overflow="visible" xlink:href="#T"/></clipPath><linearGradient id="V" x1="1807.961" x2="1812.086" y1="2790.295" y2="2790.295" gradientTransform="rotate(173.972 23378.526 30456.697) scale(21.8826)" gradientUnits="userSpaceOnUse"><stop offset="0" stop-color="#ffc7d0"/><stop offset="1" stop-color="#e65e75"/></linearGradient><polygon fill="url(#V)" points="4074.7 1653.5 3961.3 1665.5 3975.8 1802.4 4089.2 1790.4" clip-path="url(#U)"/></g><g><defs><path id="W" d="M3908.9,1639.4c0,0-6.2,100.1,45.9,111.9c42.7-2.3,72.6-67,62.5-103.2c-31.5-15.4-56.6-20.3-74.6-20.3
				C3921.4,1627.8,3909.8,1634.8,3908.9,1639.4"/></defs><clipPath id="X"><use overflow="visible" xlink:href="#W"/></clipPath><linearGradient id="Y" x1="1813.814" x2="1817.939" y1="2790.595" y2="2790.595" gradientTransform="rotate(176.564 27324.836 37443.535) scale(26.7086)" gradientUnits="userSpaceOnUse"><stop offset="0" stop-color="#ffc7d0"/><stop offset="1" stop-color="#e65e75"/></linearGradient><polygon fill="url(#Y)" points="4027.1 1620.4 3895.4 1628.3 3903.2 1758.8 4034.9 1750.9" clip-path="url(#X)"/></g><g><path fill="#00000c" d="M3872.9,1616.9c0,0,14.4,42.3,107.7,36.4c21.7,26.7,27.9,58.8,33.4,65.5c5.6,6.7,31.3,4.5,39-5.5
			c7.7-9.9-24.4-41.3-15-67.4c9.4-26.1-0.5-48.9-41.2-48C3956.1,1598.9,3855,1572.4,3872.9,1616.9"/><path fill="#00000c" d="M3964.4,1647c0,0,11.5,59.8-7.3,71c-18.8,11.2-30.7,14.6-30.7,14.6s9.6,33.5,56.2,14
			c14.6-5.7,15.5-10.1,15.5-10.1s-25.4-17.6-24.2-54.2c1.2-36.6,10-40.4,10-40.4S3962.7,1622.5,3964.4,1647"/></g><g><defs><path id="Z" d="M3476.5,1832.6c-1.5,13.1,49.9,34.1,41.9,57.6c-8,23.5,28.3,35.6,57.5,26.8c62.2-18.6,19.8-48.6-31-55.9
				c-42.8-6.2-61-31.5-66.6-31.5C3477.4,1829.6,3476.8,1830.5,3476.5,1832.6"/></defs><clipPath id="aa"><use overflow="visible" xlink:href="#Z"/></clipPath><linearGradient id="ab" x1="1821.219" x2="1825.344" y1="2783.274" y2="2783.274" gradientTransform="rotate(139.797 27912.157 21308.196) scale(18.6363)" gradientUnits="userSpaceOnUse"><stop offset="0" stop-color="#ffc7d0"/><stop offset="1" stop-color="#e65e75"/></linearGradient><polygon fill="url(#ab)" points="3570.2 1749.2 3427.6 1869.7 3543 2006.2 3685.6 1885.7" clip-path="url(#aa)"/></g><g><path fill="#fff" d="M3604.7,1856.7l-30.2,8l4.7,58.9c0,0,27.6,15.7,30,6.9c2.4-8.8-8.5-56-2.6-59.8
			C3612.5,1866.8,3609.8,1855.4,3604.7,1856.7"/><path fill="#ffa829" d="M3887.6,2299.9l1.4,6c0,0,181.4,40,221.8-32.7c54-97.2,46.6-249.4,35-326.7c-3.4-22.8-7.7-47.4-14.2-69.3
			c-42,99.7,10.3,224.3-24.9,334C4077.1,2307.2,3974.8,2303.2,3887.6,2299.9"/><path fill="#ffc261" d="M4023.2,1830.9c-90.1,60.2,25.3,181.8,0.1,324.1c-25.6,144.8-143,113.5-143,113.5l7.2,31.3
			c87.2,3.3,189.5,7.3,219.1-88.7c35.2-109.7-17.1-234.3,24.9-334C4115.9,1825,4086.8,1788.5,4023.2,1830.9"/></g><g><defs><path id="ac" d="M3835.7,2234.1c-10,2.9,8.2,23.4,5.7,21.2c-20.7-18.4-77-32.3-70.4,14c6.7,46.3,107.1,40.6,107.1,40.6
				c13.7-2.8,3.3-33.1-0.3-38.5c-3-4.6-29.9-37.3-40.8-37.3C3836.5,2233.9,3836.1,2234,3835.7,2234.1"/></defs><clipPath id="ad"><use overflow="visible" xlink:href="#ac"/></clipPath><linearGradient id="ae" x1="1834.36" x2="1838.485" y1="2799.124" y2="2799.124" gradientTransform="scale(-17.8828 17.8828) rotate(77.087 2488.27 176.122)" gradientUnits="userSpaceOnUse"><stop offset="0" stop-color="#ffc7d0"/><stop offset="1" stop-color="#e65e75"/></linearGradient><polygon fill="url(#ae)" points="3911.9 2227.6 3885.4 2343.2 3744.2 2310.9 3770.7 2195.2" clip-path="url(#ad)"/></g><g><path fill="#fff" d="M3900.4,2225.2l-41.2,27.8l28.6,93.5c0,0,46.2,12.1,46.4-3.5c0.2-15.5-33.2-87-26-96.1
			C3915.5,2237.8,3907.3,2220.6,3900.4,2225.2"/><path fill="#ffc261" d="M4000,1825.4c0,0,1-22,22.5-24.9c21.5-2.9,63.7-14.3,62.8-24.1s5.1-28.7-11.6-34.7
			c-16.7-6-15.8,9.4-15.8,14.3s-16.7,24.3-42.4,26.9c-9.8,4.6-18.8,31.1-18.8,42.5C3997.1,1830.7,4000,1825.4,4000,1825.4"/><path fill="#fcfcfc" d="M4245.8 2319.9c6.3 11.7 4.3 25.4 5.1 38.2.1 2 3.2 2 3.1 0-.8-13.4 1.2-27.5-5.5-39.7C4247.5 2316.5 4244.9 2318.1 4245.8 2319.9M4243.6 2301.9v3.3c0 .4.2.8.5 1.1.3.3.7.5 1.1.5.4 0 .8-.1 1.1-.5.3-.3.4-.7.4-1.1v-3.3c0-.4-.2-.8-.4-1.1-.3-.3-.7-.5-1.1-.4-.4 0-.8.1-1.1.4C4243.8 2301.1 4243.6 2301.5 4243.6 2301.9M4252.8 2368.4v18c0 2 3.1 2 3.1 0v-18C4255.9 2366.5 4252.8 2366.5 4252.8 2368.4M4252.1 2396.4c.1 4.9.3 9.8.4 14.7 0 2 3.1 2 3.1 0-.1-4.9-.3-9.8-.4-14.7C4255.1 2394.4 4252 2394.4 4252.1 2396.4M4254.7 2424v13.6c0 2 3.1 2 3.1 0V2424C4257.7 2422 4254.7 2422 4254.7 2424M4249.5 2450.1c.2 5.1.1 10.3-.2 15.4-.1 2 3 2 3.1 0 .3-5.1.4-10.3.2-15.4C4252.5 2448.1 4249.4 2448.1 4249.5 2450.1M4250.9 2474.3c-.7 5.1-1.9 10.1-3.6 15-.6 1.9 2.4 2.7 3 .8 1.6-4.9 2.8-9.9 3.6-15 .1-.8-.2-1.7-1.1-1.9C4252 2473 4251 2473.5 4250.9 2474.3M4245.5 2507c0 4.5-.7 8.9-2.1 13.2-.3.8.3 1.7 1.1 1.9.8.2 1.6-.3 1.9-1.1 1.5-4.5 2.2-9.3 2.2-14C4248.6 2505 4245.5 2505 4245.5 2507M4239.9 2536.8c.3 4.3.1 8.6-.6 12.8-.1.8.2 1.7 1.1 1.9.7.2 1.8-.3 1.9-1.1.8-4.5 1.1-9.1.7-13.6-.1-.8-.7-1.5-1.5-1.5C4240.7 2535.3 4239.9 2536 4239.9 2536.8M4315 3312.7c.9 3.4 4.8 4.5 7.9 4.2 4.1-.4 8-2.1 11.2-4.7.6-.5.6-1.6 0-2.2-.6-.6-1.5-.5-2.2 0-2.4 2-5.5 3.3-8.6 3.8-1.8.3-4.8.2-5.3-1.8C4317.4 3310 4314.5 3310.8 4315 3312.7M3916.8 3310.2c-.5 3.8-1 7.9.3 11.6 1.5 4 4.8 5.9 8.7 7.2 10.2 3.6 20.8 6.3 31.4 8.2 1.9.4 2.8-2.6.8-3-9.2-1.6-18.3-3.9-27.1-6.8-3.6-1.2-8.5-2.1-10.4-5.7-1.7-3.2-1.2-7.4-.7-10.8C3920.1 3309.1 3917.1 3308.3 3916.8 3310.2M3926.8 3423.3c9.3 0 18.5-.9 27.6-2.6 2-.4 1.1-3.3-.8-3-8.8 1.6-17.8 2.4-26.8 2.5C3924.9 3420.2 3924.8 3423.3 3926.8 3423.3M4400.6 3375c4.4 1 8.2-2.1 10.5-5.6 2.1-3.2 3.1-7.4 6.3-9.7.7-.5 1-1.3.6-2.1-.4-.7-1.4-1-2.1-.6-3.2 2.4-4.7 5.9-6.6 9.4-1.5 2.7-4.3 6.5-7.9 5.7C4399.5 3371.6 4398.6 3374.6 4400.6 3375M3993.4 1825.9c-.3 1.2 0 2.3.7 3.3.7 1 1.8 1.5 3 1.7 1 .1 2.2-.2 3-.8 1-.7 1.7-1.7 2.1-2.9.4-1.2.4-2.6.1-3.9-.2-.8-1.1-1.3-1.9-1.1-.8.3-1.3 1.1-1.1 1.9 0 .1 0 .3.1.4 0 .2 0 .1 0-.1l0 .2c0 .3 0 .5 0 .8 0 .1-.1.3 0 .4 0-.1 0-.1 0-.2 0 .1 0 .1 0 .2 0 .3-.1.5-.2.8-.1.2 0 .1 0-.1 0 .1-.1.1-.1.2-.1.1-.1.2-.2.3 0 .1-.1.1-.2.2.2-.4 0-.1 0 0-.1.1-.2.2-.3.2-.1.1-.1.1.1-.1 0 0-.1.1-.1.1-.1.1-.2.1-.3.2 0 0-.4.2-.1.1.3-.1-.1 0-.1 0-.1 0-.2.1-.3.1-.2 0-.1 0 .2 0-.1 0-.1 0-.2 0-.1 0-.2 0-.3 0-.3 0 .4.1 0 0-.1 0-.2-.1-.2-.1.2.1.3.1.1.1 0 0-.1 0-.1-.1-.1-.1-.2-.1-.3-.2.2.2.2.2.1.1 0 0-.1-.1-.1-.1-.1-.1-.1-.2-.2-.2.3.3.1.2.1 0-.1-.1-.1-.2-.2-.3.1.2.1.3.1.1 0-.1 0-.1 0-.2 0 0 0-.1 0-.2 0-.2 0-.1 0 .2 0-.1 0-.2 0-.3 0-.3-.1.4 0 0 .2-.8-.3-1.7-1.1-1.9C3994.5 1824.6 3993.6 1825 3993.4 1825.9"/><path fill="#e55c20" d="M4303.6 2246.4c-16.4 25.9-52.3 26-77.5 38.1-3.3 1.6-.4 6.5 2.9 4.9 26.6-12.8 62.2-12.7 79.6-40.1C4310.5 2246.1 4305.5 2243.3 4303.6 2246.4M4098.1 1820.7c8.4 2.3 17.4 4.8 23.9 11.1 6.4 6.2 9.2 15 11.9 23.3 1.1 3.5 6.7 2 5.5-1.5-3-9.2-6.3-18.9-13.4-25.8-7.2-7-17-9.9-26.4-12.5C4096 1814.2 4094.5 1819.8 4098.1 1820.7M4075.2 1740.3c2-.1 3.9-.1 5.8.1.6.1-.2 0 .1 0 .2 0 .4.1.5.1.4.1.8.2 1.2.3.2 0 .4.1.5.2-.6-.4 0 0 .1.1.1.1.5.4.2.1-.4-.4.4.5.1.1-.2-.3.1.2.2.3 0 .1.4.8.1.2.2.4.3.8.4 1.2.3.9.6 1.8.8 2.8.3.9.5 1.9.7 2.8.1.4.2.9.2 1.3 0 .3.1.5.1.8 0 .1.1.9 0 .3.2 1.5 1.2 2.9 2.9 2.9 1.4-.1 3.1-1.3 2.9-2.9-.3-2.3-.7-4.7-1.3-6.9-.6-2.2-1.3-4.7-2.8-6.5-1.4-1.6-3.5-2.3-5.6-2.6-2.4-.3-4.7-.4-7.1-.3-1.5.1-2.9 1.2-2.9 2.9C4072.4 1738.9 4073.6 1740.4 4075.2 1740.3"/><path fill="#2956b2" d="M4142,2334.2c5,35.5,29,67.6,61.5,82.7c6.6,3.1,12.5-6.8,5.8-9.9c-30.2-14-51.6-42.9-56.2-75.9
			c-0.4-3.1-4.3-4.7-7-4C4142.7,2328,4141.6,2331.1,4142,2334.2"/><path fill="#ffa829" d="M4043.1,1904c3.9,3.1,6.4,8.9,8.7,13.5c4.6,9.2,8.4,18.9,11.9,28.6c10.2,28.1,17.8,57.2,23.2,86.5
			c6.1,33.4,9.3,67.8,6.7,101.7c-2.4,31.2-10.1,63.3-28.8,89c-20.1,27.5-51.5,42.1-84.8,46c-5,0.6-10,0.9-15,1.1
			c-2.9,0.1-3,4.7,0,4.6c35.1-1.4,70.2-12.1,94.7-38.4c21.9-23.4,32.5-54.9,36.8-86.1c4.7-34.4,2.6-69.6-2.6-103.8
			c-4.8-31.6-12.4-62.8-22.6-93c-3.7-11-7.8-21.9-12.7-32.6c-2.9-6.3-5.9-13.2-10.4-18.5c-0.6-0.7-1.2-1.3-1.9-1.9
			C4044,1899,4040.8,1902.2,4043.1,1904"/><path fill="#4676b7" d="M3075.3,3485c0,99.1-354.9,126.2-460,138.6c-105.1,12.4-617.7-6.9-617.8-72.7
			C1997.4,3485,3075.2,3385.9,3075.3,3485"/></g><g><defs><path id="af" d="M2114.4,3320.9c5.9,4.6,48.9,26.7,48.9,26.7l53.7-82.3l-44.5-31.6L2114.4,3320.9z"/></defs><clipPath id="ag"><use overflow="visible" xlink:href="#af"/></clipPath><linearGradient id="ah" x1="1785.802" x2="1789.927" y1="2761.172" y2="2761.172" gradientTransform="scale(27.964 -27.964) rotate(19.617 9258.477 -3624.967)" gradientUnits="userSpaceOnUse"><stop offset="0" stop-color="#ffc7d0"/><stop offset="1" stop-color="#e65e75"/></linearGradient><polygon fill="url(#ah)" points="2078.4 3246.6 2205.5 3201.3 2253.1 3334.8 2126 3380.1" clip-path="url(#ag)"/></g><g><defs><path id="ai" d="M2643.1,3360.1c0,0,18.2-13.9,35.2-8.3c2.3,0.8,1.9-78.3,1.9-78.3l-49.6-10.3L2643.1,3360.1z"/></defs><clipPath id="aj"><use overflow="visible" xlink:href="#ai"/></clipPath><linearGradient id="ak" x1="1780.259" x2="1784.384" y1="2702.202" y2="2702.202" gradientTransform="matrix(12.029 0 0 -12.029 -18784.1 35816.531)" gradientUnits="userSpaceOnUse"><stop offset="0" stop-color="#ffc7d0"/><stop offset="1" stop-color="#e65e75"/></linearGradient><rect width="50" height="96.9" x="2630.7" y="3263.3" fill="url(#ak)" clip-path="url(#aj)"/></g><g><path fill="#051123" d="M2684.3,2360.7c-91.5,4.7-247.9,59.6-242.7,93.5c1.4,9.2,22.4,324.8,88,581.1c5.4-12.7,10.4-25.3,15.4-37.3
			C2633.4,2793.2,2638.8,2575.3,2684.3,2360.7"/><path fill="#172c51" d="M2697.5,3289.8c0,0-1.5-888.1-12.1-929.1c-0.4,0-0.7,0-1.1,0.1c-45.5,214.6-50.9,432.5-139.3,637.3
			c-5,12-10,24.6-15.4,37.3c26.3,102.8,59.9,196.1,102.2,256.2L2697.5,3289.8z"/><g opacity=".2"><defs><rect id="al" width="556.9" height="1229.3" x="2290.7" y="2211"/></defs><clipPath id="am"><use overflow="visible" xlink:href="#al"/></clipPath><g clip-path="url(#am)"><defs><rect id="an" width="556.9" height="1229.3" x="2290.7" y="2211"/></defs><clipPath id="ao"><use overflow="visible" xlink:href="#an"/></clipPath></g></g><path fill="#172c51" d="M2333.9,2422.5c0,0,25.3,342.7-53.1,530.1c-78.4,187.4-138.5,298.6-138.5,298.6s55.6,40,58.4,36.1
			c2.9-3.9,363.1-391.4,425.7-711.4c62.5-319.9,20.4-306.3,20.4-306.3S2317.5,2268.8,2333.9,2422.5"/><g opacity=".2"><defs><rect id="ap" width="816.8" height="1315.9" x="1993.7" y="2120.2"/></defs><clipPath id="aq"><use overflow="visible" xlink:href="#ap"/></clipPath><g clip-path="url(#aq)"><defs><rect id="ar" width="816.8" height="1315.9" x="1993.7" y="2120.2"/></defs><clipPath id="as"><use overflow="visible" xlink:href="#ar"/></clipPath></g></g><path fill="#633675" d="M2629.8,1788.3c-3-1-5.9-1.9-8.7-2.8c35.8,41.4,39.8,106.6,70.9,146.8
			C2682,1856.5,2663.6,1799.3,2629.8,1788.3"/><path fill="#8d53a1" d="M2691.9,1932.3c-31.1-40.2-35-105.4-70.9-146.8c-86.2-27.1-93.3-17-93.3-17s-47.6,9.2-94.1,50.3
			c-29.1,56.9-29.5,130.9-2.7,177.8c69.6,131.4,93.9,280.8,63.7,420.2c96.4,6.5,203.1-0.2,208.8-57.3
			C2700.3,2264.3,2709.8,2068.4,2691.9,1932.3"/><g opacity=".15"><defs><rect id="at" width="635.3" height="994.1" x="2238.7" y="1596.3"/></defs><clipPath id="au"><use overflow="visible" xlink:href="#at"/></clipPath><g clip-path="url(#au)"><defs><rect id="av" width="635.3" height="994.1" x="2238.7" y="1596.3"/></defs><clipPath id="aw"><use overflow="visible" xlink:href="#av"/></clipPath></g></g><path fill="#643877" d="M2431,1996.7c-26.8-46.9-26.4-121,2.7-177.8c-47.4,41.9-93.8,117-87.4,249.2c12.5,262-50.8,286.9-37.8,334.1
			c13,47.2,107.3,9.3,186.3,14.7C2524.9,2277.5,2500.5,2128.1,2431,1996.7"/></g><g><defs><path id="ax" d="M2557.4,1706.8l-32.9,75.8c17.4,36.9,89.9,30.2,89.9,30.2s-1.4-32.8-20.2-101.9
				c-1.3-6.7-7.4-8.7-14.3-8.7C2569.6,1702.2,2557.4,1706.8,2557.4,1706.8"/></defs><clipPath id="ay"><use overflow="visible" xlink:href="#ax"/></clipPath><linearGradient id="az" x1="1833.198" x2="1837.323" y1="2795.958" y2="2795.958" gradientTransform="scale(44.8724 -44.8724) rotate(86.114 2463.63 426.708)" gradientUnits="userSpaceOnUse"><stop offset="0" stop-color="#ffc7d0"/><stop offset="1" stop-color="#e65e75"/></linearGradient><polygon fill="url(#az)" points="2516.6 1818.9 2525 1696.1 2622.3 1702.8 2614 1825.6" clip-path="url(#ay)"/></g><g><defs><path id="aA" d="M2533.6,1660.8c-0.9,21.5-1.3,47.4,44.7,52.8c101.5,12.5,45.2-115.8,45.2-115.8
				c-15.3-11.4-28.1-16-38.9-16C2545.2,1581.7,2534.3,1643.9,2533.6,1660.8"/></defs><clipPath id="aB"><use overflow="visible" xlink:href="#aA"/></clipPath><linearGradient id="aC" x1="1837.416" x2="1841.541" y1="2780.942" y2="2780.942" gradientTransform="scale(-90.105 90.105) rotate(-25.769 -5133.327 5483.009)" gradientUnits="userSpaceOnUse"><stop offset="0" stop-color="#ffc7d0"/><stop offset="1" stop-color="#e65e75"/></linearGradient><polygon fill="url(#aC)" points="2651.9 1783.8 2475.7 1698.8 2560.1 1524 2736.3 1609" clip-path="url(#aB)"/></g><g><path fill="#1b2c49" d="M2666.2 1598.4c-6 9.5-38.9 7.5-58.4-.5-2.5 15-25.8 27.4-38.4 17 1.4 8.1 2.5 18.4 2.1 28.6-3.3-2.6-6.8-3.8-9.1-.3-5.1 7.4-7.2 26.4 3.8 27.4-3 6.8-7.7 12.1-14.4 14.6 0 0-37.9 34.4-70.3-5.5-32.4-39.9 26.5-61.4 35.2-57.9-29.7-15.4.2-71.4 35.1-49.9 12-19.9 58.4-20.4 55.9 6C2642.8 1570 2672.2 1579.9 2666.2 1598.4M2873 3367.1c-.9-27.6-28.3-42.3-57.9-46.5-39.6-5.6-101.4 41.5-101.4 41.5-23 .4-28.8-32.3-28.8-32.3l-50.2 14.6c0 0 .9 77.3 20.7 111.5C2736 3456.9 2823.6 3428.4 2873 3367.1"/><path fill="#aecff1" d="M2655.4,3455.8c6.1,10.6,14,17,24.3,15.8c43.5-5.1,158.3-23.7,184.4-72.4c6.6-12.2,9.2-22.9,8.9-32.2
			C2823.6,3428.4,2736,3456.9,2655.4,3455.8"/><path fill="#e65e75" d="M2742.4,3322c0,0-2.6,56.1,2.6,41.9c5.1-14.2,10.2-49.2,21-51.6c10.9-2.4,10.5,37.1,21.7,32.5
			c11.3-4.6-6.5-42.2,4.1-44c10.6-1.8,18.6,32.9,25.3,31.3c-6.6,2.7-17.9-17.5-21-25c-3.1-7.5-6.7-0.8-5,4.4
			c1.7,5.2,11,34.4-2.9,36.2c-13.8,1.9-18.1-23.4-18.9-25.6c-0.8-2.2-5.8-6-8-0.2c-2.2,5.8-10.5,49.2-18,49.3
			C2735.9,3371.5,2736.7,3333.3,2742.4,3322"/><path fill="#1b2c49" d="M2252,3512.3c22.4-16.2,19.3-47.1,6.2-74c-17.5-35.9-91.1-60.9-91.1-60.9c-13.2-18.9,10.7-41.9,10.7-41.9
			l-52.5-34.8c0,0-51.2,45.2-68.5,80.7C2101.1,3448.9,2173.6,3505.6,2252,3512.3"/><path fill="#aecff1" d="M2056.9,3381.4c-5.3,11-6.3,21.1,0.4,29c28.5,33.2,108.1,118.1,163,112.5c13.8-1.4,24.2-5.2,31.7-10.6
			C2173.6,3505.6,2101.1,3448.9,2056.9,3381.4"/><path fill="#e65e75" d="M2216.5,3378.8c0,0-48,29.2-33.3,25.5c14.6-3.7,46.5-19.1,54.6-11.4c8,7.7-24.9,29.4-14.8,36.2
			c10.1,6.8,31.3-28.9,38.7-21.2c7.4,7.8-16.9,33.9-11.8,38.5c-5.9-3.9,4.5-24.6,9-31.4c4.5-6.8-3.1-6-6.4-1.7
			c-3.3,4.3-22.4,28.3-31.7,17.9c-9.3-10.4,9.3-28.1,10.7-30c1.4-1.9,1.7-8.1-4.3-6.7c-6,1.4-46.7,18.7-51,12.6
			C2171.8,3401.1,2203.9,3380.4,2216.5,3378.8"/><path fill="#9374a3" d="M2328.6,2408.3c10.2,11.6,28.5,9.5,42.3,8.6c18.9-1.2,37.8-3.5,56.7-4.4c10.7-0.5,21.4-0.5,32.1,0.3
			c3.2,0.3,3.2-4.7,0-5c-18.1-1.4-36.2-0.3-54.2,1.2c-17.3,1.5-34.9,3.9-52.3,3.4c-7.7-0.2-15.8-1.7-21.2-7.7
			C2330,2402.4,2326.5,2405.9,2328.6,2408.3"/><path fill="#fcfcfc" d="M2507.8 1791.8c4.1 9 11.8 15.5 19.8 21.1 8.4 6 17.7 10.8 27.3 14.4 9.5 3.6 19.5 5.9 29.7 7 9.8 1.1 21.3 2 30.4-2.6 9-4.5 14.7-13.6 17.9-22.9.5-1.5-1.9-2.2-2.4-.7-2.9 8.2-7.7 16.2-15.4 20.7-8.5 4.9-19.7 4.1-29.2 3.1-19.1-1.9-37.7-8.5-53.8-19-8.8-5.8-17.7-12.7-22.1-22.5C2509.3 1789.1 2507.2 1790.4 2507.8 1791.8M2609.8 1864.3c9.6 0 9.6-14.9 0-14.9C2600.2 1849.4 2600.2 1864.3 2609.8 1864.3M2620.4 1893.4c9.6 0 9.6-14.9 0-14.9C2610.9 1878.5 2610.8 1893.4 2620.4 1893.4M2629.3 1920.8c9.6 0 9.6-14.9 0-14.9C2619.7 1905.9 2619.7 1920.8 2629.3 1920.8"/></g><g><defs><path id="aD" d="M2455.6,1870c0,0-228.8,338.3,83.9,325.8c87.4,2.8,199.2-31.9,199.2-31.9s97.1,45.7,109.7,34.6
				c12.6-11.1-57.2-51.1-64.2-49.7c15.1-7.5-3.5-27.5-24.1-25.4c-20.6,2.1-392.5,69.6-200-173.3c39.2-49.4,17.3-72.6-1.9-91.4
				c-8-7.9-23.9-11.8-41.1-11.8C2493.3,1846.9,2466.8,1854.5,2455.6,1870"/></defs><clipPath id="aE"><use overflow="visible" xlink:href="#aD"/></clipPath><linearGradient id="aF" x1="1837.081" x2="1841.206" y1="2780.395" y2="2780.395" gradientTransform="scale(-92.7318 92.7318) rotate(2.649 60555.698 -38950.93)" gradientUnits="userSpaceOnUse"><stop offset="0" stop-color="#ffc7d0"/><stop offset="1" stop-color="#e65e75"/></linearGradient><polygon fill="url(#aF)" points="2877.8 2208.8 2228.1 2238.9 2210 1847.6 2859.7 1817.6" clip-path="url(#aE)"/></g><g><path fill="#b460d8" d="M2579.5,1939.3c38.5-67-13.4-97.1-76.7-105.1c-11.1,4.9-22,12.6-32,22.4c-34.1,35.6-47.9,81.4-65.8,126.2
			l117.7,47.1C2522.7,2029.7,2539.6,2008.8,2579.5,1939.3"/><path fill="#643877" d="M2470.8,1856.5c10-9.7,20.9-17.4,32-22.4c-2.4-0.3-4.9-0.6-7.3-0.8c-66.5-6.6-123.7,136.1-123.7,136.1
			l33.2,13.3C2422.9,1937.9,2436.7,1892.2,2470.8,1856.5"/><path fill="#9374a3" d="M2434.1,1876.7c3.2-4,6-8.2,9.4-12.1c4.7-5.5,10-10.5,16.3-14.1c7.3-4.1,15.7-7.2,23.8-9
			c8-1.8,16.2-1.7,24.3-1.1c3.2,0.3,3.2-4.7,0-5c-8.3-0.7-16.7-0.6-24.9,1.1c-8.6,1.8-17.4,5-25.1,9.2c-6.7,3.7-12.6,9-17.5,14.8
			c-3.5,4-6.4,8.5-9.8,12.6C2428.6,1875.6,2432.1,1879.2,2434.1,1876.7"/><path fill="#fcfcfc" d="M2390.2 1938.3c-1.5 2.9-3.1 5.7-4.6 8.6-1.5 2.8-3.4 5.7-4.6 8.7-1.6 4.2.8 7.3 4.4 9.1 4.6 2.4 9.3 4.3 13.8 6.9 4.9 2.9 9.6 6 14.5 8.9 4.4 2.7 9 5.1 13.8 7 5.7 2.3 11.6 3.2 17.5 4.9 11.8 3.5 22.5 10 33.6 15.1 12.4 5.7 25.2 10.5 38.8 12.8 1.6.3 2.2-2.1.7-2.4-11.4-1.9-22.4-5.7-33-10.3-10.4-4.5-20.3-10-30.8-14.5-10.2-4.3-21.3-5.4-31.2-10.3-9.1-4.5-17.3-10.7-26.3-15.5-2.3-1.3-4.7-2.4-7.1-3.5-2.1-.9-5.3-1.9-6.4-4.2-1.4-3 2.6-8.1 4-10.7 1.7-3.2 3.4-6.3 5.1-9.5C2393.1 1938.1 2390.9 1936.9 2390.2 1938.3M2467.5 2538.8c34.7-1.8 68.7-18.9 90-46.5 6.2-8 11-17.1 11.6-27.3.1-1.6-2.4-1.6-2.5 0-.9 17.4-15 32.3-27.6 43-12.8 10.8-27.9 18.9-43.9 23.7-9 2.7-18.3 4.3-27.7 4.8C2465.9 2536.4 2465.9 2538.8 2467.5 2538.8M2647.4 2416c-3.8 34.2-9.9 68-16.9 101.7-6.9 33.3-14.2 66.7-22 99.8-4.4 18.5-9.8 36.7-16.6 54.5-.6 1.5 1.8 2.1 2.4.7 12.2-31.9 19.1-65.3 26.5-98.5 7.5-33.7 15-67.3 20.9-101.3 3.3-18.8 6.1-37.7 8.2-56.7C2650.1 2414.4 2647.6 2414.5 2647.4 2416M2587.3 2692.6c-20.5 52.1-41.2 104.5-69.1 153.2-7.7 13.5-16 26.7-25 39.4-.9 1.3 1.2 2.6 2.1 1.2 32.2-45.9 55.5-97.1 76.6-148.8 6-14.8 11.9-29.6 17.7-44.4C2590.3 2691.8 2587.9 2691.2 2587.3 2692.6M2483.6 2902.9c-7.1 8.5-10.3 19-15 28.8-5.4 11.1-13.5 20.4-21.5 29.6-1.1 1.2.7 3 1.8 1.8 7.8-8.9 15.8-18 21.2-28.6 5.1-10 8.1-21.1 15.4-29.8C2486.4 2903.4 2484.7 2901.7 2483.6 2902.9M2437.8 2972.1c-4.4 7.8-9.6 15-15.3 21.9-5.5 6.6-11.2 12.8-16.4 19.6-10 12.9-16.2 28.8-28.2 40.1-1.2 1.1.6 2.8 1.8 1.8 12-11.2 18.2-26.9 28-39.8 5.4-7.1 11.5-13.7 17.2-20.6 5.6-6.8 10.7-14 15.1-21.7C2440.7 2971.9 2438.6 2970.7 2437.8 2972.1M2372.8 3068l-21.4 21.7c-6.7 6.8-14.1 13.3-19.6 21.1-5.2 7.5-8.4 16.3-13.3 24-4.9 7.8-10.6 15-16.7 21.9-6.8 7.7-14.1 14.9-21.3 22.1-1.1 1.1.6 2.9 1.8 1.8 12.6-12.6 25.3-25.3 35.5-40 5.2-7.6 8.9-15.8 13.4-23.8 4.8-8.7 12.4-15.4 19.3-22.4 8.1-8.2 16.1-16.4 24.2-24.6C2375.7 3068.6 2373.9 3066.9 2372.8 3068M2200 3284c1.8-7.3 7.4-12.6 12.5-17.8 5.5-5.7 10.9-11.6 16.2-17.5 10.5-11.8 20.6-24 30.2-36.6 5.6-7.3 11-14.8 16.3-22.3.9-1.3-1.2-2.6-2.1-1.2-18.7 26.9-39.5 52.3-62.3 75.9-5.3 5.6-11.3 11.1-13.1 18.9C2197.2 3284.9 2199.6 3285.5 2200 3284M2458.2 2437.6c-1.6 5.4-1.9 11.1-.9 16.7.3 1.6 2.7.9 2.4-.7-.9-5.1-.6-10.4.9-15.4C2461.1 2436.7 2458.7 2436 2458.2 2437.6M2455.4 2470.5c-1.7 6.2-2.6 12.5-2.8 18.9 0 1.6 2.4 1.6 2.5 0 .2-6.2 1.1-12.3 2.7-18.2C2458.2 2469.6 2455.8 2468.9 2455.4 2470.5M2451.8 2509.7v16.8c0 1.6 2.5 1.6 2.5 0v-16.8C2454.3 2508.1 2451.8 2508.1 2451.8 2509.7M2454.6 2540.3c-.8 5.4-1.6 10.9-2.4 16.3-.1.7.2 1.3.9 1.5.6.2 1.4-.2 1.5-.9.8-5.4 1.6-10.9 2.4-16.3.1-.7-.2-1.3-.9-1.5C2455.5 2539.2 2454.7 2539.6 2454.6 2540.3M2452.7 2569.7c-.1 5.3-.3 10.6-.4 15.9 0 1.6 2.4 1.6 2.5 0l.4-15.9C2455.3 2568.1 2452.8 2568.1 2452.7 2569.7M2450.4 2599.3v11c0 1.6 2.5 1.6 2.5 0v-11C2452.9 2597.7 2450.4 2597.7 2450.4 2599.3M2447.1 2624.9c.3 5.2.2 10.3-.4 15.5-.1.7.6 1.2 1.2 1.2.7 0 1.2-.6 1.2-1.2.6-5.1.7-10.3.4-15.5C2449.5 2623.3 2447 2623.3 2447.1 2624.9M2445 2655.5c-1.5 5.6-2.5 11.4-2.9 17.2-.1 1.6 2.4 1.6 2.5 0 .4-5.6 1.3-11.1 2.8-16.5C2447.8 2654.6 2445.4 2653.9 2445 2655.5M2439.8 2686.1c-2.2 6.3-4.4 12.6-6.6 18.9-.5 1.5 1.9 2.2 2.4.7 2.2-6.3 4.4-12.6 6.6-18.9C2442.7 2685.3 2440.3 2684.6 2439.8 2686.1"/></g></svg>